<svg xmlns="http://www.w3.org/2000/svg" version="1.1" xmlns:xlink="http://www.w3.org/1999/xlink" xmlns:svgjs="http://svgjs.dev/svgjs" width="100%" height="100%" viewBox="0 0 1000 600"><rect width="1000" height="600" x="0" y="0" fill="#cc313d"/><g><rect width="333.3333333333333" height="333.3333333333333" rx="13.333333333333334" ry="13.333333333333334" y="262.5271058661875" fill="#f7c5cc" transform="matrix(0.5201725857330368,0,0,0.5201725857330368,-10.186246631060417,76.74517165141486)" x="281.11639404296875"/><path d="M393.917718894043 501.0861639953343L371.962990780676 501.0861639953343Q368.42376200224334 491.76331745702385 365.31614648947317 482.7569873135325Q362.208530976703 473.7506571700412 358.899495939957 464.4278106317307L358.899495939957 464.4278106317307L293.84098969575945 464.4278106317307L280.80626907275126 501.0861639953343L259.88741279697433 501.0861639953343Q268.1743874976948 478.2969835683531 275.42549036082517 458.93193504896124Q282.67659322395554 439.56688652956944 289.6111796922667 422.15848481451434Q296.5457661605779 404.7500830994593 303.3940299757566 388.89548914078927Q310.21351957322446 373.0408951821193 317.6660419603307 357.5028176182685L317.6660419603307 357.5028176182685L336.11031551297583 357.5028176182685Q343.56283790008206 373.0408951821193 350.4111017152607 388.89548914078927Q357.2593655304394 404.7500830994593 364.1939519987506 422.15848481451434Q371.12853846706184 439.56688652956944 378.37964133019216 458.93193504896124Q385.6307441933226 478.2969835683531 393.917718894043 501.0861639953343L393.917718894043 501.0861639953343ZM299.65338167334806 447.85386123028985L353.11587818007916 447.85386123028985Q346.46903388887637 429.8124267255964 339.93728646851685 412.92196092933636Q333.4343132658682 396.06026935078717 326.3846299267136 380.52219178693633L326.3846299267136 380.52219178693633Q319.13352706358324 396.06026935078717 312.6017796432237 412.92196092933636Q306.07003222286426 429.8124267255964 299.65338167334806 447.85386123028985L299.65338167334806 447.85386123028985ZM450.05621764788174 486.7853777930494L450.05621764788174 486.7853777930494Q481.5639860412459 486.7853777930494 481.5639860412459 465.2334887276341L481.5639860412459 465.2334887276341Q481.5639860412459 458.6154186541421 478.74411270558403 453.95399538498685Q475.9530135876331 449.2925721158316 471.20526766534533 445.86844020824225Q466.42874752534675 442.4443083006529 460.3286133706498 439.9697255775211Q454.19970499824194 437.4951428543893 447.3802154007741 434.99178591354666L447.3802154007741 434.99178591354666Q439.4960797480054 432.3157836664391 432.4463964088508 428.8916517588497Q425.39671306969626 425.46751985126036 420.217353881746 420.8060965821051Q415.0379946937958 416.14467331294986 412.04547605186895 409.7280227634337Q409.0529574099421 403.31137221391754 409.0529574099421 394.1899451995829L409.0529574099421 394.1899451995829Q409.0529574099421 375.3428325989861 421.88625850897444 364.75392048139884Q434.71955960800676 354.1937825815225 457.3073205110121 354.1937825815225L457.3073205110121 354.1937825815225Q470.37081535173115 354.1937825815225 481.0460501224509 356.9848816994735Q491.69251067545974 359.80475503513526 496.6704503394342 363.1137900718813L496.6704503394342 363.1137900718813L490.25379978991805 379.4863199493463Q485.90889291558193 376.7815434845278 477.30540182004233 374.19186389055267Q468.70191072450274 371.60218429657755 457.3073205110121 371.60218429657755L457.3073205110121 371.60218429657755Q451.52370275113435 371.60218429657755 446.5457630871599 372.83947565814344Q441.5678234231855 374.07676701970934 437.82717512077693 376.580123960552Q434.11530103607925 379.0547066836838 431.92846049005584 382.8816776392248Q429.7703941617432 386.73742281247667 429.7703941617432 391.91678200042696L429.7703941617432 391.91678200042696Q429.7703941617432 397.7003997603048 432.0435573608991 401.6424675866891Q434.3167205600551 405.58453541307347 438.4602079104153 408.5770540550003Q442.6036952607755 411.598346914638 448.09957084354494 414.0729296377698Q453.5954464263144 416.5475123609016 460.2135164998065 419.05086930174417L460.2135164998065 419.05086930174417Q469.5363630381169 422.7627433864419 477.30540182004233 426.5033916888504Q485.0744406019677 430.24403999125894 490.771735708713 435.42339917920924Q496.4690308154583 440.6027583671595 499.5766463282285 447.7387643594465Q502.6842618409986 454.87477035173356 502.6842618409986 465.03206920365824L502.6842618409986 465.03206920365824Q502.6842618409986 483.87918180425504 488.90141155750877 494.0364806561797Q475.1185612740189 504.19377950810446 450.05621764788174 504.19377950810446L450.05621764788174 504.19377950810446Q441.5678234231855 504.19377950810446 434.43181743089843 503.0428107996711Q427.26703722090053 501.9206163089485 421.6848389849986 500.3668085525634Q416.0738665313858 498.81300079617836 412.04547605186895 497.0577735158174Q408.0170855723521 495.2737720177456 405.7151481554853 494.0364806561797L405.7151481554853 494.0364806561797L411.72895965704976 477.4625312547389Q416.50547979704834 480.16730771955736 426.23116538331055 483.4763427563034Q435.9856251872835 486.7853777930494 450.05621764788174 486.7853777930494ZM597.1500185856694 441.0055974151112L597.1500185856694 441.0055974151112Q600.4590536224155 445.1490847654714 605.5520901572331 451.8822517098067Q610.6163524743401 458.6154186541421 615.9971311862662 466.7872964840192Q621.4066841159031 474.9879485316071 626.6723659569859 483.87918180425504Q631.9668220157796 492.7991892946138 635.6786961004773 501.0861639953343L635.6786961004773 501.0861639953343L613.7239679871102 501.0861639953343Q609.58048063675 493.20202834256554 604.7176378436191 485.1452473835318Q599.8547950504878 477.0596922067872 594.8768553865134 469.6934924728135Q589.898915722539 462.3560669565506 585.036072929408 455.9106421893236Q580.173230136277 449.49399163980746 576.2311623098924 444.7462457175197L576.2311623098924 444.7462457175197Q573.526385845074 444.94766524149554 570.7352867271231 444.94766524149554Q567.9441876091721 444.94766524149554 565.0379916203776 444.94766524149554L565.0379916203776 444.94766524149554L547.0253313333951 444.94766524149554L547.0253313333951 501.0861639953343L526.9121531535216 501.0861639953343L526.9121531535216 359.5745612934486Q535.4293215959286 357.5028176182685 545.8743626249618 356.7834621754976Q556.3481778717057 356.0641067327267 565.0379916203776 356.0641067327267L565.0379916203776 356.0641067327267Q595.2796944344652 356.0641067327267 611.1342883931352 367.45869694621734Q626.9888823518052 378.853287159708 626.9888823518052 401.44104806271326L626.9888823518052 401.44104806271326Q626.9888823518052 415.7418342649982 619.4212630938555 425.8703588992121Q611.853643835906 436.02765775113676 597.1500185856694 441.0055974151112ZM566.7068962476062 373.6739279717576L566.7068962476062 373.6739279717576Q553.8448209308629 373.6739279717576 547.0253313333951 374.306960761396L547.0253313333951 374.306960761396L547.0253313333951 428.3737158400547L561.3261175356802 428.3737158400547Q571.6848359115806 428.3737158400547 579.9718106123009 427.33784400246464Q588.2587853130215 426.30197216487454 593.9560804197667 423.39577617608023Q599.653375526512 420.4895801872859 602.7609910392821 415.22389834620316Q605.8686065520524 409.92944228740953 605.8686065520524 401.2396285387374L605.8686065520524 401.2396285387374Q605.8686065520524 393.15407336199286 602.7609910392821 387.7732946500667Q599.653375526512 382.3637417204298 594.3589194677184 379.2561262076596Q589.0644634089249 376.14851069488947 581.9284574166377 374.9112193333236Q574.7924514243507 373.6739279717576 566.7068962476062 373.6739279717576Z " fill="#cc313d" transform="matrix(0.5201725857330368,0,0,0.5201725857330368,-10.186246631060417,76.74517165141486)"/><path d="M820.4696235147057 501.3491794653559L800.3730478401224 501.3491794653559Q797.1333639502484 492.81537799934665 794.2887634615787 484.5713043608871Q791.444162972909 476.3272307224276 788.415190230344 467.79342925641834L788.415190230344 467.79342925641834L728.8629522221745 467.79342925641834L716.9314335058098 501.3491794653559L697.7830579941162 501.3491794653559Q705.3686592972356 480.48877588177777 712.006060437465 462.76270061441903Q718.6434615776943 445.0366253470604 724.991134890374 429.1015948318271Q731.3388082030538 413.1665643165938 737.6074648354927 398.6538340456953Q743.8497825745179 384.1411037747969 750.6715559686426 369.91810133144816L750.6715559686426 369.91810133144816L767.5547866467658 369.91810133144816Q774.3765600408905 384.1411037747969 780.6452166733293 398.6538340456953Q786.9138733057682 413.1665643165938 793.2615466184479 429.1015948318271Q799.6092199311277 445.0366253470604 806.2466210713571 462.76270061441903Q812.8840222115865 480.48877588177777 820.4696235147057 501.3491794653559L820.4696235147057 501.3491794653559ZM734.1834086917236 452.6222266501797L783.1210726542085 452.6222266501797Q777.036788275665 436.107740479847 771.0578594707758 420.64681004605865Q765.1052695593003 405.21221850568395 758.6522406729661 390.9892160623352L758.6522406729661 390.9892160623352Q752.0148395327367 405.21221850568395 746.0359107278475 420.64681004605865Q740.0569819229582 436.107740479847 734.1834086917236 452.6222266501797L734.1834086917236 452.6222266501797ZM920.9788407810369 424.72933852516803L920.9788407810369 369.91810133144816L939.3633883837358 369.91810133144816L939.3633883837358 501.3491794653559L920.9788407810369 501.3491794653559L920.9788407810369 440.6643690404013L856.6856019584179 440.6643690404013L856.6856019584179 501.3491794653559L838.301054355719 501.3491794653559L838.301054355719 369.91810133144816L856.6856019584179 369.91810133144816L856.6856019584179 424.72933852516803L920.9788407810369 424.72933852516803ZM1002.5240547895696 488.25874943879234L1002.5240547895696 488.25874943879234Q1031.3388041840576 488.25874943879234 1031.3388041840576 468.5309182719994L1031.3388041840576 468.5309182719994Q1031.3388041840576 462.4729727868694 1028.7839315229376 458.2060720538648Q1026.2290588618175 453.9391713208601 1021.8568025551584 450.8048430046407Q1017.5108851419129 447.67051468842124 1011.9007008448143 445.4053698548509Q1006.3168554411293 443.14022502128057 1000.0481988086904 440.8487412942966L1000.0481988086904 440.8487412942966Q992.8576809067752 438.399224206831 986.4046520204411 435.2648958906115Q979.9516231341069 432.1305675743921 975.2106223196572 427.86366684138744Q970.4696215052077 423.59676610838284 967.7303765901925 417.7231928771481Q964.9647927817634 411.8496196459133 964.9647927817634 403.50019043379933L964.9647927817634 403.50019043379933Q964.9647927817634 386.2482152478856 976.7382781376466 376.5555024716776Q988.4854246001162 366.8891285888832 1009.161455929799 366.8891285888832L1009.161455929799 366.8891285888832Q1021.1193135395774 366.8891285888832 1030.8647041026127 369.4440012500032Q1040.6364335590615 372.02521280453686 1045.1930621196157 375.0541855471019L1045.1930621196157 375.0541855471019L1039.319488888381 390.04101589944526Q1035.342315982926 387.56515991856605 1027.4669868522572 385.19465951134123Q1019.591657721588 382.82415910411646 1009.161455929799 382.82415910411646L1009.161455929799 382.82415910411646Q1003.84099946025 382.82415910411646 999.3107097931093 383.95673152090166Q994.754081232555 385.08930393768685 991.3300250887859 387.3807876646708Q987.9323078384302 389.64593249824117 985.9305519389961 393.1490053222511Q983.9287960395618 396.6784170396747 983.9287960395618 401.4194178541243L983.9287960395618 401.4194178541243Q983.9287960395618 406.71353543025964 986.0359075126505 410.32196382792404Q988.1166800923256 413.93039222558843 991.9094807438853 416.66963714060375Q995.702281395445 419.43522094903267 1000.7330100374442 421.700365782603Q1005.7373997860299 423.96551061617333 1011.8216841645735 426.2569943431573L1011.8216841645735 426.2569943431573Q1020.3554856305827 429.65471159351284 1027.4669868522572 433.07876773728196Q1034.5784880739313 436.50282388105114 1039.793588969826 441.24382469550073Q1045.0086898657205 445.98482550995027 1047.8532903543903 452.51687107652526Q1050.6978908430601 459.04891664310026 1050.6978908430601 468.3465460181041L1050.6978908430601 468.3465460181041Q1050.6978908430601 485.59852120401786 1038.0815608979415 494.89615057902176Q1025.4652309528228 504.1937799540257 1002.5240547895696 504.1937799540257L1002.5240547895696 504.1937799540257Q994.754081232555 504.1937799540257 988.1956967725664 503.1402242174813Q981.6636512059914 502.11300737435056 976.5539058837514 500.69070713001565Q971.4178216680976 499.2684068856808 967.7303765901925 497.6617343874507Q964.0165926188736 496.0287229958069 961.9358200391985 494.89615057902176L961.9358200391985 494.89615057902176L967.4406487626427 479.7249479727831Q971.8129050693018 482.20080395366233 980.7154510431014 485.2297766962273Q989.6179970169012 488.25874943879234 1002.5240547895696 488.25874943879234ZM1180.7856854128736 501.3491794653559L1160.6891097382902 501.3491794653559Q1157.4494258484165 492.81537799934665 1154.6048253597467 484.5713043608871Q1151.7602248710768 476.3272307224276 1148.7312521285119 467.79342925641834L1148.7312521285119 467.79342925641834L1089.1790141203423 467.79342925641834L1077.2474954039776 501.3491794653559L1058.099119892284 501.3491794653559Q1065.6847211954034 480.48877588177777 1072.322122335633 462.76270061441903Q1078.9595234758622 445.0366253470604 1085.307196788542 429.1015948318271Q1091.6548701012216 413.1665643165938 1097.9235267336605 398.6538340456953Q1104.1658444726859 384.1411037747969 1110.9876178668105 369.91810133144816L1110.9876178668105 369.91810133144816L1127.8708485449338 369.91810133144816Q1134.6926219390584 384.1411037747969 1140.9612785714971 398.6538340456953Q1147.229935203936 413.1665643165938 1153.5776085166158 429.1015948318271Q1159.9252818292955 445.0366253470604 1166.562682969525 462.76270061441903Q1173.2000841097545 480.48877588177777 1180.7856854128736 501.3491794653559L1180.7856854128736 501.3491794653559ZM1094.4994705898912 452.6222266501797L1143.4371345523764 452.6222266501797Q1137.3528501738328 436.107740479847 1131.3739213689437 420.64681004605865Q1125.421331457468 405.21221850568395 1118.968302571134 390.9892160623352L1118.968302571134 390.9892160623352Q1112.3309014309045 405.21221850568395 1106.3519726260154 420.64681004605865Q1100.3730438211262 436.107740479847 1094.4994705898912 452.6222266501797L1094.4994705898912 452.6222266501797ZM1262.9103550765058 446.3535700177408L1262.9103550765058 446.3535700177408Q1265.939327819071 450.1463706693005 1270.574973059866 456.30967172808494Q1275.2369571940746 462.4729727868694 1280.1623302624196 469.95321851633423Q1285.0877033307643 477.45980313921274 1289.9340597188684 485.59852120401786Q1294.7540772135587 493.76357816223657 1298.178133357328 501.3491794653559L1298.178133357328 501.3491794653559L1278.0815576827445 501.3491794653559Q1274.2887570311848 494.13232267002707 1269.8111451508712 486.75743251421665Q1265.3598721639714 479.3562034649926 1260.8032436034173 472.61344675110877Q1256.2729539362765 465.8970289306385 1251.795342055963 459.9971168059901Q1247.3440690690632 454.1235435747554 1243.7356406713989 449.77762616150994L1243.7356406713989 449.77762616150994Q1241.2861235839332 449.9619984154052 1238.731250922813 449.9619984154052Q1236.1500393682793 449.9619984154052 1233.5161500269185 449.9619984154052L1233.5161500269185 449.9619984154052L1217.0016638565858 449.9619984154052L1217.0016638565858 501.3491794653559L1198.6171162538867 501.3491794653559L1198.6171162538867 371.814501657228Q1206.3870898109014 369.91810133144816 1215.9744470134551 369.25962899610795Q1225.535465322595 368.60115666076774 1233.5161500269185 368.60115666076774L1233.5161500269185 368.60115666076774Q1261.1983270046212 368.60115666076774 1275.7110572755196 379.0313584525568Q1290.1974486530044 389.4615602443459 1290.1974486530044 410.13759157402876L1290.1974486530044 410.13759157402876Q1290.1974486530044 423.22802160059234 1283.296658578639 432.4993120821826Q1276.36952961086 441.7969414571865 1262.9103550765058 446.3535700177408ZM1235.017466951494 384.7205594298963L1235.017466951494 384.7205594298963Q1223.2703204890247 384.7205594298963 1217.0016638565858 385.30001508499566L1217.0016638565858 385.30001508499566L1217.0016638565858 434.7907958091665L1230.0920938831493 434.7907958091665Q1239.5740955120486 434.7907958091665 1247.1596968151678 433.84259564627666Q1254.745298118287 432.89439548338675 1259.9603990141818 430.23416724861227Q1265.1754999100763 427.57393901383773 1268.0201003987459 422.75392151914735Q1270.8647008874157 417.9075651310433 1270.8647008874157 409.9532193201335L1270.8647008874157 409.9532193201335Q1270.8647008874157 402.5519902709094 1268.0201003987459 397.6266172025646Q1265.1754999100763 392.67490524080614 1260.3291435219721 389.8303047521364Q1255.5091260272818 386.98570426346663 1248.9507415672933 385.8531318466815Q1242.4186960007182 384.7205594298963 1235.017466951494 384.7205594298963ZM1340.2676850322748 491.1033499274621L1340.2676850322748 491.1033499274621Q1340.2676850322748 496.2394341431158 1336.8699677819193 500.03223479467545Q1333.44591163815 503.8250354462351 1327.5723384069154 503.8250354462351L1327.5723384069154 503.8250354462351Q1321.6987651756806 503.8250354462351 1318.2747090319115 500.03223479467545Q1314.8506528881423 496.2394341431158 1314.8506528881423 491.1033499274621L1314.8506528881423 491.1033499274621Q1314.8506528881423 485.993604605222 1318.2747090319115 482.20080395366233Q1321.6987651756806 478.40800330210266 1327.5723384069154 478.40800330210266L1327.5723384069154 478.40800330210266Q1333.44591163815 478.40800330210266 1336.8699677819193 482.20080395366233Q1340.2676850322748 485.993604605222 1340.2676850322748 491.1033499274621ZM1408.9331801615526 503.61432429892625L1408.9331801615526 503.61432429892625Q1396.9753225517745 503.61432429892625 1387.9674210043202 499.8215236473666Q1378.959519456866 496.0287229958069 1372.7962183980817 489.20694960168225Q1366.6329173392971 482.3851762075576 1363.6039445967322 473.00853015231286Q1360.5749718541672 463.6055452036545 1360.5749718541672 452.22714324897555L1360.5749718541672 452.22714324897555Q1360.5749718541672 440.8487412942966 1363.8936724242817 431.3667396653974Q1367.2123729943964 421.8847380364983 1373.2703184795266 414.9576090687192Q1379.3282639646563 408.05681899435365 1388.1517932582155 404.1586627691396Q1396.9753225517745 400.2605065439255 1407.774268851354 400.2605065439255L1407.774268851354 400.2605065439255Q1414.4116699915835 400.2605065439255 1421.0490711318128 401.4194178541243Q1427.6864722720422 402.5519902709094 1433.770756650586 405.0015073583751L1433.770756650586 405.0015073583751L1429.793583745131 419.98833771071844Q1425.7900719462625 418.0919373849386 1420.5749710503678 416.9593649681534Q1415.3598701544734 415.82679255136827 1409.4862969232386 415.82679255136827L1409.4862969232386 415.82679255136827Q1394.7101777182042 415.82679255136827 1386.834848587535 425.1244219263722Q1378.959519456866 434.39571240796244 1378.959519456866 452.22714324897555L1378.959519456866 452.22714324897555Q1378.959519456866 460.207827953299 1380.7505642089914 466.8452290935284Q1382.5679478545303 473.48263023375785 1386.439765186331 478.2236310482074Q1390.337921411545 482.964631862657 1396.3958668966752 485.5195045237771Q1402.4801512752188 488.0743771848971 1411.1983249951231 488.0743771848971L1411.1983249951231 488.0743771848971Q1418.2044706431432 488.0743771848971 1423.8936716204826 486.75743251421665Q1429.5828725978222 485.4141489501226 1432.8225564876957 483.9128320255469L1432.8225564876957 483.9128320255469L1435.2720735751616 498.68895123058144Q1433.770756650586 499.6371513934713 1430.926156161916 500.50633487612043Q1428.0815556732464 501.3491794653559 1424.473127275582 502.0076518006961Q1420.8646988779176 502.66612413603633 1416.7821703988084 503.1402242174813Q1412.7259808131123 503.61432429892625 1408.9331801615526 503.61432429892625ZM1486.2905101173217 488.4431216926876L1483.8409930298562 503.2455797911357Q1467.5108791134187 502.8768352833452 1460.6891057192943 496.2394341431158Q1453.8673323251694 489.6020330028864 1453.8673323251694 475.56340281343296L1453.8673323251694 475.56340281343296L1453.8673323251694 357.2227547060887L1471.5143909122871 354.19378196352375L1471.5143909122871 472.71880232476315Q1471.5143909122871 477.06471973800865 1472.2518799278682 479.90932022667835Q1473.015707836863 482.75392071534816 1474.7277359087475 484.4659487872327Q1476.439763980632 486.1779768591173 1479.284364469302 487.02082144835276Q1482.1289649579717 487.89000493100184 1486.2905101173217 488.4431216926876L1486.2905101173217 488.4431216926876ZM1584.5345825500824 402.7363625248047L1584.5345825500824 498.50457897668616Q1578.4502981715386 500.03223479467545 1568.4941964611949 501.7179239731464Q1558.5380947508506 503.429952045031 1545.4740036177009 503.429952045031L1545.4740036177009 503.429952045031Q1534.0956016630216 503.429952045031 1526.2992892125935 500.1112514749163Q1518.529315655579 496.7925509048016 1513.7883148411292 490.73460541967154Q1509.0473140266797 484.65032104112794 1506.9665414470046 476.40624740266844Q1504.8857688673295 468.1621737642089 1504.8857688673295 458.1007164802103L1504.8857688673295 458.1007164802103L1504.8857688673295 402.7363625248047L1522.5064885610336 402.7363625248047L1522.5064885610336 454.30791582865066Q1522.5064885610336 472.32371892355906 1528.1956895383732 480.1200313739872Q1533.8848905157129 487.89000493100184 1547.3704039434806 487.89000493100184L1547.3704039434806 487.89000493100184Q1550.2150044321502 487.89000493100184 1553.2439771747154 487.70563267710656Q1556.2729499172801 487.4949215297977 1558.9331781520546 487.23153259566163Q1561.5934063868292 486.9418047681119 1563.753195646745 486.6520769405622Q1565.9393238000748 486.36234911301256 1566.8875239629647 485.993604605222L1566.8875239629647 485.993604605222L1566.8875239629647 402.7363625248047L1584.5345825500824 402.7363625248047ZM1632.497707456264 354.19378196352375L1632.497707456264 407.10861883146373Q1635.7373913461379 405.0015073583751 1642.269436912713 402.7363625248047Q1648.8278213727017 400.47121769123436 1657.3616228387104 400.47121769123436L1657.3616228387104 400.47121769123436Q1667.976196884395 400.47121769123436 1676.2202705228547 404.264018342794Q1684.4643441613139 408.05681899435365 1690.1535451386535 414.87859238847835Q1695.8427461159931 421.700365782603 1698.792702178317 431.1823674115021Q1701.716319347228 440.6643690404013 1701.716319347228 452.04277099508033L1701.716319347228 452.04277099508033Q1701.716319347228 464.00062860485866 1698.213246523218 473.56164691399863Q1694.7101736992076 483.1490041165523 1688.2571448128738 489.7864052567817Q1681.8041159265395 496.42380639701105 1672.7171976988445 500.03223479467545Q1663.603940577736 503.61432429892625 1652.225538623057 503.61432429892625L1652.225538623057 503.61432429892625Q1639.898936505488 503.61432429892625 1630.416934876589 501.9286351204553Q1620.9349332476897 500.2166070485707 1614.8769877625596 498.50457897668616L1614.8769877625596 498.50457897668616L1614.8769877625596 357.2227547060887L1632.497707456264 354.19378196352375ZM1632.497707456264 423.59676610838284L1632.497707456264 485.993604605222Q1635.1579356910386 486.75743251421665 1640.0042920791425 487.4159048495569Q1644.8243095738328 488.0743771848971 1652.0411663691616 488.0743771848971L1652.0411663691616 488.0743771848971Q1666.2641688125104 488.0743771848971 1674.7979702785196 478.69773112965237Q1683.3317717445289 469.294746180994 1683.3317717445289 452.04277099508033L1683.3317717445289 452.04277099508033Q1683.3317717445289 444.457169691961 1681.8041159265395 437.81976855173156Q1680.3027990019639 431.1823674115021 1676.8787428581948 426.33601102339816Q1673.4810256078392 421.5159935287077 1668.0552135646358 418.7504097202788Q1662.6557404148462 416.0111648052635 1655.0701391117266 416.0111648052635L1655.0701391117266 416.0111648052635Q1647.8796212098114 416.0111648052635 1641.7953368312678 418.48702078614275Q1635.7373913461379 420.93653787360836 1632.497707456264 423.59676610838284L1632.497707456264 423.59676610838284Z " fill="#f7c5cc" transform="matrix(0.5201725857330368,0,0,0.5201725857330368,-10.186246631060417,76.74517165141486)"/></g></svg>